# xmcd CD database file
#
# Track frame offsets:
#	150
#	11982
#	24123
#	37870
#	48206
#	61658
#	76493
#	88157
#	103563
#	114214
#	127758
#	139408
#	159720
#	176962
#
# Disc length: 2491 seconds
#
# Revision: 0
# Processed by: cddbd v1.5.1PL0 Copyright (c) Steve Scherf et al.
# Submitted via: CDex 1.51
#
DISCID=a909b90e
DTITLE=Kenny Rogers - Thinking of the good times
DYEAR=2004
DGENRE=Country
TTITLE0=Elvira
TTITLE1=Reuben James
TTITLE2=Molly
TTITLE3=Trying just as hard
TTITLE4=A stranger in my place
TTITLE5=All god´s lonely children
TTITLE6=Calico Silver
TTITLE7=My Washington woman
TTITLE8=Good time liberator
TTITLE9=I´m gonna sing you a sad song suzy
TTITLE10=Girl get a hold of your self
TTITLE11=Lay it down
TTITLE12=Something´s burning
TTITLE13=Where does Rosie go?
EXTD=YEAR: 2004
EXTT0=
EXTT1=
EXTT2=
EXTT3=
EXTT4=
EXTT5=
EXTT6=
EXTT7=
EXTT8=
EXTT9=
EXTT10=
EXTT11=
EXTT12=
EXTT13=
PLAYORDER=
